<svg width="241" height="35" viewBox="0 0 241 35" fill="none" xmlns="http://www.w3.org/2000/svg">
<path d="M58.2428 1.43002L53.8121 10.5688C52.833 9.92174 51.5935 9.64781 50.1066 9.64781C45.6307 9.64781 43.4573 13.5 43.4573 17.7017V34.079H34.6345V1.07845H43.4573V5.17656H43.5562C46.2547 1.90886 49.6783 0.599618 53.7325 0.599618C55.2737 0.600817 56.8018 0.882172 58.2428 1.43002ZM95.4855 19.6774C95.4855 25.6736 93.3551 30.5352 89.8906 34.0833H62.0366C58.5785 30.5352 56.4417 25.6714 56.4417 19.6774C56.4503 8.33426 64.7609 0.0323535 75.9636 0C87.1684 0.0323535 95.4855 8.33426 95.4855 19.6774ZM89.4344 20.2576C89.4344 13.2714 84.0116 6.6907 75.97 6.6907C67.9285 6.6907 62.5057 13.2714 62.5057 20.2576C62.5057 22.449 63.1018 25.1775 63.9841 26.7671L75.97 16.056L87.956 26.7671C88.8383 25.1775 89.4344 22.449 89.4344 20.2576ZM31.5165 28.8571C28.6803 32.1572 23.576 34.8059 16.9461 34.8059C7.18298 34.8059 0 27.9038 0 17.7491C0 7.59444 7.15716 0.64707 17.3743 0.64707C22.612 0.64707 28.0541 2.80397 31.383 6.98835L25.4137 12.1326C24.4759 11.0103 23.3009 10.1112 21.9737 9.50014C20.6466 8.8891 19.2005 8.58149 17.7401 8.59956C12.4702 8.59956 8.96904 12.3375 8.96904 17.6866C8.96904 23.1069 12.5648 26.8361 17.8025 26.8361C19.2397 26.859 20.6651 26.5742 21.9836 26.0006C23.3021 25.4271 24.4833 24.578 25.4482 23.5102L31.5165 28.8571ZM123.722 24.4549C123.722 30.3044 119.578 34.7261 110.94 34.7261C105.668 34.7261 101.188 33.0351 97.5986 29.8687L101.889 23.7518C104.571 26.3142 107.407 27.6212 111.003 27.6212C113.585 27.6212 115.055 26.5018 115.055 24.8841C115.055 23.3635 113.333 22.6021 109.057 21.2174C103.615 19.4293 98.9048 16.854 98.9048 10.4761C98.9048 4.50145 104.043 0.567264 110.772 0.567264C115.358 0.567264 119.079 1.81827 122.836 4.72577L118.558 11.1986C116.025 8.79368 113.116 7.70229 110.68 7.70229C109.234 7.70229 107.452 8.46367 107.452 10.1806C107.452 11.5653 109.174 12.523 112.401 13.7481C119.544 16.3924 123.722 17.9432 123.722 24.4549ZM165.469 1.29414V34.2947H156.646V1.29414H165.469ZM204.203 1.29414V34.079H196.026V30.4123H195.595C193.308 33.3715 189.96 35 185.677 35C176.495 35 169.801 28.1907 169.801 17.9152C169.794 7.8166 176.525 0.64707 185.41 0.64707C189.325 0.64707 192.727 2.11376 195.186 4.97381H195.165V1.29414H204.203ZM195.729 17.8656C195.729 12.579 192.204 8.6276 187.418 8.6276C182.684 8.6276 178.953 12.2124 178.953 17.8656C178.953 23.2233 182.441 26.8901 187.384 26.8901C191.972 26.8901 195.729 23.2945 195.729 17.8656ZM241 14.6087V34.2947H231.962V16.7397C232.04 10.4243 229.81 8.47446 225.754 8.47446C221.302 8.47446 218.313 11.6149 218.19 17.4989V34.2947H209.367V1.29414H218.19V5.39225H218.298C219.615 3.85749 221.25 2.62983 223.09 1.79526C224.93 0.960682 226.93 0.539359 228.949 0.560794C236.051 0.560794 241 4.40007 241 14.6087ZM151.912 24.4549C151.912 30.3044 147.759 34.7261 139.121 34.7261C133.847 34.7261 129.369 33.0351 125.78 29.8687L130.073 23.7518C132.76 26.3142 135.588 27.6212 139.184 27.6212C141.753 27.6212 143.236 26.5018 143.236 24.8841C143.236 23.3635 141.514 22.6021 137.238 21.2174C131.796 19.4293 127.084 16.854 127.084 10.4761C127.084 4.50145 132.225 0.567264 138.951 0.567264C143.537 0.567264 147.26 1.81827 151.015 4.72577L146.733 11.1965C144.198 8.79152 141.29 7.70013 138.852 7.70013C137.408 7.70013 135.625 8.46151 135.625 10.1784C135.625 11.5631 137.346 12.5208 140.574 13.7459C147.722 16.3924 151.912 17.9432 151.912 24.4549Z" fill="white"/>
</svg>
